# xmcd CD database file
#
# Track frame offsets:
#	150
#	19810
#	39350
#	61972
#	81050
#	99150
#	117182
#	133467
#	151707
#	175525
#
# Disc length: 2596 seconds
#
# Revision: 0
# Processed by: cddbd v1.5PL3 Copyright (c) Steve Scherf et al.
# Submitted via: CDex 1.50
#
DISCID=6f0a220a
DTITLE=中森明菜 - D404ME
DYEAR=1985
DGENRE=JPop
TTITLE0=Endless
TTITLE1=ノクターン
TTITLE2=アレグロ・ビーチェ
TTITLE3=悲しい浪漫西
TTITLE4=ピ・ア・ス
TTITLE5=Blue Ocean
TTITLE6=マグネティック・ラブ
TTITLE7=Star Pilot
TTITLE8=モナリザ
TTITLE9=ミ・アモーレ [Meu amour e…]
EXTD=YEAR: 1985
EXTT0=
EXTT1=
EXTT2=
EXTT3=
EXTT4=
EXTT5=
EXTT6=
EXTT7=
EXTT8=
EXTT9=
PLAYORDER=
